<svg data-name="Ebene 1" id="Ebene_1" viewBox="0 0 273.6 80.66" xmlns="http://www.w3.org/2000/svg">
  <defs>
    <style>.cls-1 {
      fill: none;
    }

    .cls-2 {
      isolation: isolate;
      font-size: 39.09px;
      font-family: Arial-Black, Arial,serif;
    }

    .cls-2, .cls-4 {
      fill: #f2f2f2;
    }

    .cls-3 {
      letter-spacing: -0.03em;
    }</style>
  </defs>
  <title>Logo Blog</title>
  <rect class="cls-1" height="31" width="119.3" x="44.1" y="6.88"/>
  <text class="cls-2" transform="translate(27.17 33.8)">&gt;Niklas</text>
  <rect class="cls-1" height="27" width="124.3" x="122.9" y="41.88"/>
  <text class="cls-2" transform="translate(65.74 67.16)">
    <tspan class="cls-3">W</tspan>
    <tspan x="38.08" y="0">eimann</tspan>
  </text>
  <path class="cls-4"
        d="M271.55,56.44a128.5,128.5,0,0,1-2.12,23.14h13.16a138.44,138.44,0,0,0,1.91-23.14A136.55,136.55,0,0,0,271.87-1.08H257.33A122.4,122.4,0,0,1,271.55,56.44Z"
        transform="translate(-10.9 1.08)"/>
  <path class="cls-4"
        d="M23.85,56.44A122.07,122.07,0,0,1,38.07-1.08H23.53A135.75,135.75,0,0,0,10.9,56.44a139.32,139.32,0,0,0,1.91,23.14H26A126.76,126.76,0,0,1,23.85,56.44Z"
        transform="translate(-10.9 1.08)"/>
</svg>
